<svg width="864" height="432" xmlns="http://www.w3.org/2000/svg" data-name="Layer 1">

 <g>
  <title>Layer 1</title>
  <g id="svg_1">
   <g id="type">
    <path fill=" #f59720" d="m263.1545,110.4854l99.9325,0l0,29.2875l-65.8523,0l0,18.8149l59.6405,0l0,27.1582l-59.6405,0l0,19.7025l66.74,0l0,29.2875l-100.82,0l-0.0002,-124.2506z" data-name="type &lt;CompoundPathItem&gt;" id="type_CompoundPathItem_"/>
    <path fill=" #f59720" d="m413.4989,140.6605l-37.2752,0l0,-30.1751l108.9853,0l0,30.1751l-37.2752,0l0,94.0755l-34.4349,0l0,-94.0755z" data-name="type &lt;CompoundPathItem&gt;" id="type_CompoundPathItem_2"/>
    <path fill=" #f59720" d="m497.6355,110.4854l34.4345,0l0,46.5053l44.1979,0l0,-46.5053l34.435,0l0,124.2506l-34.435,0l0,-47.2155l-44.1979,0l0,47.2155l-34.4345,0l0,-124.2506z" data-name="type &lt;CompoundPathItem&gt;" id="type_CompoundPathItem_3"/>
    <path fill=" #f59720" d="m621.3538,172.9655l0,-0.3548c0,-35.678 28.7553,-64.6107 67.0955,-64.6107s66.74,28.5779 66.74,64.2559l0,0.3548c0,35.6773 -28.7546,64.61 -67.0947,64.61s-66.7408,-28.5772 -66.7408,-64.2552zm98.69,0l0,-0.3548c0,-17.9281 -12.9572,-33.5481 -31.9495,-33.5481c-18.8149,0 -31.4181,15.2653 -31.4181,33.1933l0,0.3548c0,17.9273 12.9579,33.5473 31.7729,33.5473c18.9932,0 31.5949,-15.2645 31.5949,-33.1925l-0.0002,0z" data-name="type &lt;CompoundPathItem&gt;" id="type_CompoundPathItem_4"/>
    <path fill=" #f59720" d="m755.5468,216.2758l19.17,-22.8976c12.2484,9.7623 25.9158,14.91 40.2928,14.91c9.2308,0 14.2,-3.1949 14.2,-8.52l0,-0.3547c0,-5.1476 -4.0818,-7.9877 -20.9449,-11.8929c-26.4472,-6.0352 -46.8607,-13.49 -46.8607,-39.05l0,-0.3547c0,-23.0749 18.2835,-39.76 48.1031,-39.76c21.123,0 37.63,5.68 51.1206,16.5076l-17.2177,24.3165c-11.36,-7.9877 -23.7851,-12.2476 -34.79,-12.2476c-8.3418,0 -12.4251,3.55 -12.4251,7.9877l0,0.3548c0,5.68 4.26,8.1651 21.4778,12.07c28.5773,6.2131 46.3273,15.4432 46.3273,38.6962l0,0.3547c0,25.3823 -20.0574,40.47 -50.2331,40.47c-22.0099,0.0001 -42.9548,-6.9226 -58.2201,-20.59z" data-name="type &lt;CompoundPathItem&gt;" id="type_CompoundPathItem_5"/>
   </g>
   <g id="logoMark">
    <path fill=" #f59720" d="m80.7505,311.0943l0,0.85l0.6541,-0.85l-0.6541,0z" data-name="logoMark &lt;CompoundPathItem&gt;" id="logoMark_CompoundPathItem_"/>
    <rect fill=" #f59720" height="64.782" width="47.7687" y="110.4854" x="152.8098" data-name="logoMark &lt;PathItem&gt;" id="logoMark_PathItem_"/>
    <polygon fill=" #f59720" points="200.58200073242188,311.0679931640625 121.64199829101562,311.0679931640625 186.4510040283203,227.3730010986328 200.57899475097656,209.1300048828125 200.58200073242188,311.0679931640625 " data-name="logoMark &lt;PathItem&gt;" id="logoMark_PathItem_2"/>
    <rect x="0" fill=" #f59720" height="70.7518" width="47.7713" y="240.3148" data-name="logoMark &lt;PathItem&gt;" id="logoMark_PathItem_3"/>
    <polygon fill=" #f59720" points="158.91099548339844,211.0189971923828 81.40499877929688,311.093994140625 80.7509994506836,311.093994140625 80.7509994506836,211.41799926757812 41.66999816894531,211.41799926757812 114.7030029296875,117.11000061035156 119.83100128173828,110.48500061035156 119.83100128173828,211.0189971923828 158.91099548339844,211.0189971923828 " data-name="logoMark &lt;PathItem&gt;" id="logoMark_PathItem_4"/>
    <polygon fill=" #f59720" points="74.32099914550781,110.48699951171875 14.126999855041504,188.21800231933594 0.0009999275207519531,206.4580078125 0.0009999275207519531,110.48699951171875 74.32099914550781,110.48699951171875 " data-name="logoMark &lt;PathItem&gt;" id="logoMark_PathItem_5"/>
   </g>
  </g>
 </g>
</svg>